Coordinates
version=1
nRows=7
nColumns=40
inDegrees=yes

Units are S.I. units (second, meters, Newtons, ...)
Angles are in degrees.

endheader
time	pelvis_tilt	pelvis_list	pelvis_rotation	pelvis_tx	pelvis_ty	pelvis_tz	hip_flexion_r	hip_adduction_r	hip_rotation_r	knee_angle_r	knee_angle_r_beta	ankle_angle_r	subtalar_angle_r	mtp_angle_r	hip_flexion_l	hip_adduction_l	hip_rotation_l	knee_angle_l	knee_angle_l_beta	ankle_angle_l	subtalar_angle_l	mtp_angle_l	lumbar_extension	lumbar_bending	lumbar_rotation	arm_flex_r	arm_add_r	arm_rot_r	elbow_flex_r	pro_sup_r	wrist_flex_r	wrist_dev_r	arm_flex_l	arm_add_l	arm_rot_l	elbow_flex_l	pro_sup_l	wrist_flex_l	wrist_dev_l
     47.96000000	     -5.18765917	     -5.48957398	      9.63703725	      0.90680124	      0.91846756	      0.53642398	      6.86755816	      4.40894460	    -13.49977561	     17.52549435	     17.52549435	     17.99333669	     -5.47410106	     -3.01547695	     31.16905655	     -6.90355317	      2.69017196	     17.40116844	     17.40116844	      3.27339490	     -2.48251138	      1.77248721	     -8.32030917	      3.87025533	      1.99012408	     61.41836942	    -21.00878976	     -8.31630055	     77.20269478	     45.03586930	      0.00000000	      0.00000000	    -15.42089884	     -8.15383439	     14.29765021	     29.97653254	     44.24480654	      0.00000000	      0.00000000
     47.97857143	     -5.23238072	     -5.69149528	      9.57952291	      0.90781166	      0.91775854	      0.53338084	      6.12178982	      4.54638480	    -13.55434053	     16.90410285	     16.90410285	     18.22048473	     -4.94305430	     -3.05061756	     31.09249702	     -6.97571893	      2.60314901	     17.91659797	     17.91659797	      3.06547617	     -2.77740920	      1.08104628	     -8.14156939	      3.91477129	      2.04969254	     62.04259876	    -20.79586244	     -8.26754097	     77.42903069	     45.03430492	      0.00000000	      0.00000000	    -15.50550922	     -7.94513802	     14.52386871	     29.87410171	     44.22463765	      0.00000000	      0.00000000
     47.99714286	     -5.29604175	     -5.81026347	      9.47036973	      0.90890942	      0.91700102	      0.53016645	      5.47279255	      4.56615343	    -13.47305817	     16.47527105	     16.47527105	     18.48822821	     -4.62673664	     -3.08140156	     31.05083044	     -6.95360052	      2.55405414	     18.60477785	     18.60477785	      2.84429085	     -3.35990655	      0.64000596	     -7.99446810	      3.86393377	      2.17076688	     62.44895334	    -20.61398502	     -8.25242563	     77.56774645	     45.03387236	      0.00000000	      0.00000000	    -15.44958323	     -7.82571113	     14.65211876	     29.81927656	     44.21542987	      0.00000000	      0.00000000
     48.01571429	     -5.27849079	     -6.00643359	      9.39246652	      0.91014732	      0.91625407	      0.52686147	      4.72762703	      4.68612255	    -13.44732436	     16.01125347	     16.01125347	     18.71299279	     -4.27717990	     -3.07608797	     31.04927595	     -6.96523270	      2.81095530	     19.53651573	     19.53651573	      2.66613466	     -4.22634672	      0.12140315	     -7.91580468	      3.89415960	      2.21974542	     62.67318677	    -20.39637116	     -8.26898973	     77.66140619	     45.03568290	      0.00000000	      0.00000000	    -15.26987778	     -7.77324095	     14.78009827	     29.73610104	     44.20956018	      0.00000000	      0.00000000
     48.03428571	     -5.27466171	     -6.14615927	      9.29186127	      0.91141831	      0.91559378	      0.52330955	      4.00058217	      4.71318729	    -13.36333523	     15.57673505	     15.57673505	     18.87331859	     -3.91953573	     -3.02365736	     31.07664814	     -6.87471633	      3.20893317	     20.55565784	     20.55565784	      2.53389141	     -5.36196758	     -0.36850820	     -7.83438566	      3.95044717	      2.25629396	     62.71215177	    -20.15378380	     -8.32912290	     77.70249525	     45.04065326	      0.00000000	      0.00000000	    -14.91408665	     -7.78179023	     14.89953602	     29.64281001	     44.20996731	      0.00000000	      0.00000000
     48.05285714	     -5.33483105	     -6.08893267	      9.08271051	      0.91265230	      0.91512612	      0.51981434	      3.44288808	      4.49538350	    -13.18618775	     15.38612739	     15.38612739	     19.04710166	     -3.78647034	     -3.00403644	     31.00560664	     -6.67066032	      3.21308875	     21.38052953	     21.38052953	      2.56233312	     -6.05589492	     -0.56491476	     -7.73378281	      3.68544547	      2.38337535	     62.48464058	    -19.81689009	     -8.25079832	     77.66796215	     45.03921425	      0.00000000	      0.00000000	    -14.38103591	     -7.93367553	     14.89430072	     29.71585968	     44.22247426	      0.00000000	      0.00000000
     48.07142857	     -5.32665105	     -6.28104618	      8.94516181	      0.91380150	      0.91469784	      0.51610122	      2.74018046	      4.55480914	    -13.17055733	     14.95104884	     14.95104884	     19.09493210	     -3.37838997	     -2.78249641	     31.13578123	     -6.51666418	      4.06865373	     22.57341277	     22.57341277	      2.65075039	     -7.82997413	     -0.70575943	     -7.70531749	      3.82705332	      2.50754622	     62.21216084	    -19.62334728	     -8.52500085	     77.63821624	     45.05467389	      0.00000000	      0.00000000	    -13.74886186	     -8.06092455	     14.95060857	     29.53534820	     44.24382573	      0.00000000	      0.00000000
